<svg width="500" height="500" viewBox="0 0 500 500" fill="none" xmlns="http://www.w3.org/2000/svg">
<circle cx="250" cy="250" r="250" fill="#C7CAD2"/>
<path d="M449.121 399.798C425.991 368.832 395.958 343.688 361.408 326.364C326.857 309.039 288.742 300.012 250.092 300C211.441 299.988 173.32 308.991 138.759 326.294C104.198 343.597 74.1489 368.722 51 399.674C74.0312 430.782 104.031 456.061 138.594 473.484C173.158 490.907 211.323 499.988 250.029 500C288.735 500.012 326.906 490.955 361.48 473.554C396.054 456.153 426.07 430.893 449.121 399.798Z" fill="white"/>
<path d="M250.105 268C303.124 268 346.105 225.019 346.105 172C346.105 118.981 303.124 76 250.105 76C197.085 76 154.105 118.981 154.105 172C154.105 225.019 197.085 268 250.105 268Z" fill="white"/>
</svg>
